<svg xmlns="http://www.w3.org/2000/svg" viewBox="0 0 200 200">
  <defs>
    <!-- Purple gradient for top half -->
    <linearGradient id="purpleGradient" x1="0%" y1="0%" x2="0%" y2="100%">
      <stop offset="0%" style="stop-color:#a855f7;stop-opacity:1" />
      <stop offset="100%" style="stop-color:#7c3aed;stop-opacity:1" />
    </linearGradient>
    <!-- White gradient for bottom half -->
    <linearGradient id="whiteGradient" x1="0%" y1="0%" x2="0%" y2="100%">
      <stop offset="0%" style="stop-color:#ffffff;stop-opacity:1" />
      <stop offset="100%" style="stop-color:#e5e5e5;stop-opacity:1" />
    </linearGradient>
    <!-- Radial highlight -->
    <radialGradient id="shine">
      <stop offset="0%" style="stop-color:#ffffff;stop-opacity:0.8" />
      <stop offset="100%" style="stop-color:#ffffff;stop-opacity:0" />
    </radialGradient>
  </defs>
  
  <!-- Background circle -->
  <circle cx="100" cy="100" r="95" fill="#1a1a1a" stroke="#000000" stroke-width="3"/>
  
  <!-- Top half - Purple -->
  <path d="M 100 5 A 95 95 0 0 1 195 100 L 5 100 A 95 95 0 0 1 100 5 Z" 
        fill="url(#purpleGradient)" 
        stroke="none"/>
  
  <!-- Bottom half - White -->
  <path d="M 100 195 A 95 95 0 0 1 5 100 L 195 100 A 95 95 0 0 1 100 195 Z" 
        fill="url(#whiteGradient)" 
        stroke="none"/>
  
  <!-- Middle divider line (black) -->
  <line x1="5" y1="100" x2="65" y2="100" stroke="#000000" stroke-width="4"/>
  <line x1="135" y1="100" x2="195" y2="100" stroke="#000000" stroke-width="4"/>
  
  <!-- Outer ring of center button -->
  <circle cx="100" cy="100" r="35" fill="#000000" stroke="#333333" stroke-width="3"/>
  
  <!-- Middle ring -->
  <circle cx="100" cy="100" r="30" fill="#ffffff" stroke="#cccccc" stroke-width="2"/>
  
  <!-- Inner button -->
  <circle cx="100" cy="100" r="20" fill="#f0f0f0" stroke="#999999" stroke-width="2"/>
  
  <!-- Inner circle detail -->
  <circle cx="100" cy="100" r="12" fill="#ffffff" stroke="#aaaaaa" stroke-width="1.5"/>
  
  <!-- Shine/highlight effect on top -->
  <ellipse cx="100" cy="40" rx="60" ry="30" fill="url(#shine)" opacity="0.3"/>
  
  <!-- Center button highlight -->
  <circle cx="95" cy="95" r="6" fill="#ffffff" opacity="0.7"/>
  
  <!-- Outer border -->
  <circle cx="100" cy="100" r="95" fill="none" stroke="#000000" stroke-width="5"/>
</svg>
